# xmcd
#
# Track frame offsets: 
#        150
#        18148
#        35563
#        49808
#        75089
#        90607
#        108443
#        140481
#        150367
#        168754
#        187652
#        213343
#        226937
#        253158
#
# Disc length: 3574 seconds
#
# Revision: 0
# Processed by: cddbd v1.5.2PL0 Copyright (c) Steve Scherf et al.
# Submitted via: ExactAudioCopy v1.0b1
#
DISCID=9c0df40e
DTITLE=Lil' Ed and The Blues Imperials - Full Tilt
DYEAR=2008
DGENRE=Blues
TTITLE0=Hold That Train
TTITLE1=Housekeeping Job
TTITLE2=Don't Call Me
TTITLE3=Check My Baby's Oil
TTITLE4=First I Look At The Purse
TTITLE5=Love Don't Live Here Anymore
TTITLE6=Life Got In The Way
TTITLE7=Candy Sweet
TTITLE8=Woman, Take A Bow
TTITLE9=My Baby Moves Me
TTITLE10=Dying To Live
TTITLE11=Open Invitation
TTITLE12=Every Man Needs a Good Woman
TTITLE13=Take Five
EXTD=
EXTT0=
EXTT1=
EXTT2=
EXTT3=
EXTT4=
EXTT5=
EXTT6=
EXTT7=
EXTT8=
EXTT9=
EXTT10=
EXTT11=
EXTT12=
EXTT13=
PLAYORDER=
